<svg xmlns="http://www.w3.org/2000/svg" viewBox="0 -130 654 654"><g fill="#000" fill-rule="nonzero"><path d="M553.97 1.621c.765.618 1.307 1.52 1.52 2.558.172 1.088 4.415 26.974-29.3 72.927.016.015-20.102 33.48-25.88 50.287-4.937 14.395-18.78 36.535-25.45 47.198-1.66 2.628-2.85 4.583-3.337 5.443-.39.704-.982 1.692-1.757 3.034-4.385 7.418-14.629 24.898-18.31 38.468-4.7 17.147-27.825 47.235-28.813 48.54 0 0-13.976 22.766-17.262 33.552-3.519 11.601-11.433 27.627-17.414 37.452-3.226 5.26-4.198 8.891-3.17 12.122 1.403 4.405 6.649 8.634 15.636 12.573 2.248.982 3.25 3.555 2.263 5.773-.941 2.197-3.55 3.23-5.762 2.248-11.58-5.038-18.28-10.917-20.488-17.986-2.34-7.449.942-14.23 4.056-19.323 5.575-9.11 13.242-24.6 16.523-35.42 3.585-11.9 17.834-34.995 18.446-35.998.481-.673 23.257-30.351 27.506-45.806 4.005-14.715 14.685-32.92 19.237-40.645.724-1.25 1.286-2.198 1.626-2.84.536-.907 1.843-3.014 3.615-5.85 6.476-10.375 19.976-31.947 24.558-45.385 6.092-17.692 26.073-50.896 26.904-52.303 24.32-33.167 27.738-54.784 28.037-62.897L8.823 9.186c.273 8.087 3.63 29.638 27.774 62.602 1.059 1.722 21.015 34.945 27.086 52.642 4.608 13.46 18.133 35.09 24.64 45.482 1.722 2.81 2.993 4.84 3.53 5.777.34.638.932 1.62 1.67 2.881 4.533 7.753 15.152 25.9 19.137 40.581 4.253 15.484 27.01 45.158 27.243 45.442.866 1.367 15.08 24.488 18.72 36.382 3.301 10.912 10.947 26.422 16.487 35.46 3.114 5.094 6.375 11.915 4.03 19.317-2.207 7.049-8.921 12.892-20.512 17.966-2.213.972-4.8-.051-5.747-2.249-.982-2.223.035-4.785 2.258-5.762 9.009-3.95 14.27-8.173 15.657-12.609 1.008-3.185.081-6.81-3.15-12.051-5.823-9.54-13.9-25.87-17.398-37.522-3.327-10.81-17.379-33.73-17.546-33.947-.724-.876-23.79-30.994-28.473-48.104-3.702-13.556-13.9-31.01-18.284-38.485-.785-1.336-1.372-2.395-1.788-3.043-.455-.886-1.64-2.795-3.28-5.388-6.665-10.669-20.545-32.867-25.48-47.28-5.773-16.857-25.881-50.292-26.073-50.646C-4.127 30.988.122 5.112.309 4.024a4.396 4.396 0 0 1 4.314-3.6l546.531.152c1.069.005 2.036.4 2.82 1.043l-.004.002Z"/><path d="M518.14 386.896c5.905 4.917 9.343 10.442 9.343 16.63 0 37.414-129.316 57.557-250.963 57.477-121.634-.025-250.937-20.17-250.924-57.614.005-35.521 113.862-49.386 148.763-52.789 2.39-.248 4.532 1.52 4.76 3.93.238 2.405-1.54 4.521-3.93 4.77-96.77 9.428-140.855 29.47-140.855 44.079.03 23.1 99.475 48.85 242.174 48.9 142.735.055 242.213-25.663 242.226-48.758 0-14.416-43.259-34.266-138.289-43.942-2.405-.233-4.137-2.39-3.93-4.775.239-2.38 2.396-4.152 4.801-3.93 28.26 2.872 109.203 12.939 136.811 36.024l.014-.002Z"/><path d="M420.478 443.765a4.136 4.136 0 0 1 1.544 3.347l.03 12.325c-.03 25.419-95.389 32.093-145.78 32.057-50.424-.045-145.795-6.724-145.77-32.139l.006-12.39c-.005-2.406 1.974-4.355 4.385-4.37a4.372 4.372 0 0 1 4.37 4.39l-.016 12.36c.02 8.188 47.127 23.344 137.019 23.374 89.956.065 137.031-15.155 137.031-23.308l.006-12.3c0-2.405 1.97-4.37 4.385-4.37 1.078 0 2.066.385 2.805 1.023h-.015ZM630.335 51.467c5.373 4.491 9.945 9.99 13.226 16.674 23.804 48.813 3.828 95.333-54.834 127.645-63.22 34.853-154.506 57.178-155.465 57.387-2.31.582-4.684-.876-5.261-3.226a4.33 4.33 0 0 1 3.23-5.27c.892-.239 91.076-22.282 153.287-56.578 54.799-30.19 72.962-71.407 51.148-116.125-18.411-37.775-89.864-31.137-90.558-31.076a4.382 4.382 0 0 1-4.805-3.929 4.376 4.376 0 0 1 3.94-4.775c2.698-.258 56.723-5.261 86.087 19.272h.005Z"/><path d="M612.524 73.763c3.58 2.977 6.345 6.345 8.056 9.874 8.436 17.44-.162 50.14-29.126 74.684-39.38 33.405-137.317 60.034-141.478 61.128-2.33.648-4.71-.734-5.362-3.069a4.432 4.432 0 0 1 3.109-5.377c.987-.254 100.2-27.238 138.055-59.367 25.42-21.495 33.734-50.07 26.933-64.202-7.099-14.543-42.377-27.556-83.94-15.635a4.362 4.362 0 0 1-5.403-3.008c-.673-2.324.684-4.735 2.978-5.423 35.789-10.244 69.817-3.261 86.173 10.395h.005Z"/></g></svg>